<mxfile host="app.diagrams.net" modified="2022-04-11T01:16:20.816Z" agent="5.0 (Windows NT 10.0; Win64; x64) AppleWebKit/537.36 (KHTML, like Gecko) Chrome/100.0.4896.75 Safari/537.36" etag="YTNm2AvQQdQH6JlSQ4E1" version="17.4.2" type="github">
  <diagram id="Ut1cegrl1C2wNNa5rdiQ" name="Page-1">
    <mxGraphModel dx="1038" dy="579" grid="1" gridSize="10" guides="1" tooltips="1" connect="1" arrows="1" fold="1" page="1" pageScale="1" pageWidth="827" pageHeight="1169" math="0" shadow="0">
      <root>
        <mxCell id="0" />
        <mxCell id="1" parent="0" />
        <mxCell id="gO9lN6muDUA_JVY4itH_-2" style="edgeStyle=orthogonalEdgeStyle;rounded=0;orthogonalLoop=1;jettySize=auto;html=1;exitX=0.5;exitY=1;exitDx=0;exitDy=0;exitPerimeter=0;" edge="1" parent="1" source="gO9lN6muDUA_JVY4itH_-1">
          <mxGeometry relative="1" as="geometry">
            <mxPoint x="370" y="600" as="targetPoint" />
          </mxGeometry>
        </mxCell>
        <mxCell id="gO9lN6muDUA_JVY4itH_-1" value="Node Start" style="strokeWidth=2;html=1;shape=mxgraph.flowchart.terminator;whiteSpace=wrap;" vertex="1" parent="1">
          <mxGeometry x="320" y="510" width="100" height="60" as="geometry" />
        </mxCell>
        <mxCell id="gO9lN6muDUA_JVY4itH_-5" value="" style="edgeStyle=orthogonalEdgeStyle;rounded=0;orthogonalLoop=1;jettySize=auto;html=1;" edge="1" parent="1" source="gO9lN6muDUA_JVY4itH_-3" target="gO9lN6muDUA_JVY4itH_-4">
          <mxGeometry relative="1" as="geometry" />
        </mxCell>
        <mxCell id="gO9lN6muDUA_JVY4itH_-3" value="Initiate thie I2C BUs" style="rounded=1;whiteSpace=wrap;html=1;" vertex="1" parent="1">
          <mxGeometry x="310" y="600" width="120" height="60" as="geometry" />
        </mxCell>
        <mxCell id="gO9lN6muDUA_JVY4itH_-7" value="" style="edgeStyle=orthogonalEdgeStyle;rounded=0;orthogonalLoop=1;jettySize=auto;html=1;" edge="1" parent="1" source="gO9lN6muDUA_JVY4itH_-4" target="gO9lN6muDUA_JVY4itH_-6">
          <mxGeometry relative="1" as="geometry" />
        </mxCell>
        <mxCell id="gO9lN6muDUA_JVY4itH_-4" value="Initiatethie PCA9685" style="rounded=1;whiteSpace=wrap;html=1;" vertex="1" parent="1">
          <mxGeometry x="310" y="680" width="120" height="60" as="geometry" />
        </mxCell>
        <mxCell id="gO9lN6muDUA_JVY4itH_-16" style="edgeStyle=orthogonalEdgeStyle;rounded=0;orthogonalLoop=1;jettySize=auto;html=1;exitX=0.5;exitY=1;exitDx=0;exitDy=0;entryX=0.5;entryY=0;entryDx=0;entryDy=0;" edge="1" parent="1" source="gO9lN6muDUA_JVY4itH_-6" target="gO9lN6muDUA_JVY4itH_-15">
          <mxGeometry relative="1" as="geometry" />
        </mxCell>
        <mxCell id="gO9lN6muDUA_JVY4itH_-6" value="Initiate ROS Subscriber" style="rounded=1;whiteSpace=wrap;html=1;" vertex="1" parent="1">
          <mxGeometry x="310" y="760" width="120" height="60" as="geometry" />
        </mxCell>
        <mxCell id="gO9lN6muDUA_JVY4itH_-13" style="edgeStyle=orthogonalEdgeStyle;rounded=0;orthogonalLoop=1;jettySize=auto;html=1;exitX=0.5;exitY=1;exitDx=0;exitDy=0;entryX=0.5;entryY=0;entryDx=0;entryDy=0;" edge="1" parent="1" source="gO9lN6muDUA_JVY4itH_-10" target="gO9lN6muDUA_JVY4itH_-12">
          <mxGeometry relative="1" as="geometry" />
        </mxCell>
        <mxCell id="gO9lN6muDUA_JVY4itH_-10" value="Send Signal to Update PWM Channel 0..15" style="rounded=1;whiteSpace=wrap;html=1;" vertex="1" parent="1">
          <mxGeometry x="520" y="640" width="120" height="60" as="geometry" />
        </mxCell>
        <mxCell id="gO9lN6muDUA_JVY4itH_-18" style="edgeStyle=orthogonalEdgeStyle;rounded=0;orthogonalLoop=1;jettySize=auto;html=1;exitX=0.5;exitY=1;exitDx=0;exitDy=0;" edge="1" parent="1" source="gO9lN6muDUA_JVY4itH_-12">
          <mxGeometry relative="1" as="geometry">
            <mxPoint x="580" y="540" as="targetPoint" />
            <Array as="points">
              <mxPoint x="580" y="820" />
              <mxPoint x="490" y="820" />
              <mxPoint x="490" y="530" />
              <mxPoint x="580" y="530" />
            </Array>
          </mxGeometry>
        </mxCell>
        <mxCell id="gO9lN6muDUA_JVY4itH_-12" value="Seelp unitl update rate= 1Hz" style="rhombus;whiteSpace=wrap;html=1;" vertex="1" parent="1">
          <mxGeometry x="500" y="720" width="160" height="80" as="geometry" />
        </mxCell>
        <mxCell id="gO9lN6muDUA_JVY4itH_-17" style="edgeStyle=orthogonalEdgeStyle;rounded=0;orthogonalLoop=1;jettySize=auto;html=1;exitX=0.5;exitY=1;exitDx=0;exitDy=0;entryX=0.5;entryY=0;entryDx=0;entryDy=0;" edge="1" parent="1" source="gO9lN6muDUA_JVY4itH_-15" target="gO9lN6muDUA_JVY4itH_-10">
          <mxGeometry relative="1" as="geometry" />
        </mxCell>
        <mxCell id="gO9lN6muDUA_JVY4itH_-21" style="edgeStyle=orthogonalEdgeStyle;rounded=0;orthogonalLoop=1;jettySize=auto;html=1;exitX=1;exitY=0.5;exitDx=0;exitDy=0;" edge="1" parent="1" source="gO9lN6muDUA_JVY4itH_-15" target="gO9lN6muDUA_JVY4itH_-20">
          <mxGeometry relative="1" as="geometry">
            <Array as="points">
              <mxPoint x="710" y="585" />
              <mxPoint x="710" y="840" />
              <mxPoint x="580" y="840" />
            </Array>
          </mxGeometry>
        </mxCell>
        <mxCell id="gO9lN6muDUA_JVY4itH_-15" value="ROS node Running&lt;br&gt;?" style="rhombus;whiteSpace=wrap;html=1;" vertex="1" parent="1">
          <mxGeometry x="505" y="545" width="150" height="80" as="geometry" />
        </mxCell>
        <mxCell id="gO9lN6muDUA_JVY4itH_-19" style="edgeStyle=orthogonalEdgeStyle;rounded=0;orthogonalLoop=1;jettySize=auto;html=1;exitX=1;exitY=0.5;exitDx=0;exitDy=0;entryX=0.5;entryY=0;entryDx=0;entryDy=0;" edge="1" parent="1" source="gO9lN6muDUA_JVY4itH_-12" target="gO9lN6muDUA_JVY4itH_-12">
          <mxGeometry relative="1" as="geometry">
            <Array as="points">
              <mxPoint x="680" y="760" />
              <mxPoint x="680" y="710" />
              <mxPoint x="580" y="710" />
            </Array>
          </mxGeometry>
        </mxCell>
        <mxCell id="gO9lN6muDUA_JVY4itH_-20" value="Node END" style="strokeWidth=2;html=1;shape=mxgraph.flowchart.terminator;whiteSpace=wrap;" vertex="1" parent="1">
          <mxGeometry x="530" y="870" width="100" height="60" as="geometry" />
        </mxCell>
        <mxCell id="gO9lN6muDUA_JVY4itH_-22" value="No" style="text;html=1;strokeColor=none;fillColor=none;align=center;verticalAlign=middle;whiteSpace=wrap;rounded=0;" vertex="1" parent="1">
          <mxGeometry x="630" y="730" width="60" height="30" as="geometry" />
        </mxCell>
        <mxCell id="gO9lN6muDUA_JVY4itH_-23" value="Yes" style="text;html=1;strokeColor=none;fillColor=none;align=center;verticalAlign=middle;whiteSpace=wrap;rounded=0;" vertex="1" parent="1">
          <mxGeometry x="520" y="790" width="60" height="30" as="geometry" />
        </mxCell>
        <mxCell id="gO9lN6muDUA_JVY4itH_-24" value="Yes" style="text;html=1;strokeColor=none;fillColor=none;align=center;verticalAlign=middle;whiteSpace=wrap;rounded=0;" vertex="1" parent="1">
          <mxGeometry x="570" y="610" width="60" height="30" as="geometry" />
        </mxCell>
        <mxCell id="gO9lN6muDUA_JVY4itH_-25" value="NO" style="text;html=1;strokeColor=none;fillColor=none;align=center;verticalAlign=middle;whiteSpace=wrap;rounded=0;" vertex="1" parent="1">
          <mxGeometry x="640" y="555" width="60" height="30" as="geometry" />
        </mxCell>
      </root>
    </mxGraphModel>
  </diagram>
</mxfile>
